<svg xmlns="http://www.w3.org/2000/svg" width="52.001" height="61.066" viewBox="0 0 52.001 61.066">
  <path id="Path_2948" data-name="Path 2948" d="M51.941,16.568l0-.047c-.027-.587-.044-1.207-.055-1.9a6.472,6.472,0,0,0-6.094-6.34C38.769,7.89,33.337,5.6,28.7,1.078l-.04-.038a3.908,3.908,0,0,0-5.311,0l-.04.038C18.665,5.6,13.234,7.89,6.213,8.283a6.472,6.472,0,0,0-6.094,6.34c-.01.686-.028,1.306-.055,1.9l0,.11C-.075,23.79-.245,32.7,2.736,40.788a30.751,30.751,0,0,0,7.377,11.491,38.593,38.593,0,0,0,14.437,8.539,4.471,4.471,0,0,0,.592.161,4.37,4.37,0,0,0,1.718,0,4.486,4.486,0,0,0,.594-.162,38.618,38.618,0,0,0,14.422-8.544A30.794,30.794,0,0,0,49.254,40.78C52.246,32.668,52.077,23.741,51.941,16.568ZM45.892,39.54c-3.144,8.524-9.562,14.378-19.62,17.9a.9.9,0,0,1-.114.031.8.8,0,0,1-.315,0,.892.892,0,0,1-.113-.03C15.662,53.924,9.24,48.074,6.1,39.549,3.351,32.094,3.506,23.915,3.644,16.7v-.04c.028-.62.047-1.27.057-1.983A2.877,2.877,0,0,1,6.413,11.86,31.439,31.439,0,0,0,17.084,9.513a27.918,27.918,0,0,0,8.7-5.842.33.33,0,0,1,.443,0,27.928,27.928,0,0,0,8.7,5.842A31.44,31.44,0,0,0,45.59,11.86,2.876,2.876,0,0,1,48.3,14.676c.011.717.029,1.367.057,1.983C48.5,23.883,48.647,32.069,45.892,39.54Zm0,0" transform="translate(0 0.001)" fill="#2289ff"/>
</svg>
